<?xml version="1.0" encoding="UTF-8" standalone="no"?>
<!-- Created with Inkscape (http://www.inkscape.org/) -->

<svg
   width="32.000008mm"
   height="32.000004mm"
   viewBox="0 0 32.000008 32.000004"
   version="1.1"
   id="svg1"
   xml:space="preserve"
   inkscape:version="1.3.2 (091e20e, 2023-11-25, custom)"
   sodipodi:docname="Comprexx_Main.svg"
   xmlns:inkscape="http://www.inkscape.org/namespaces/inkscape"
   xmlns:sodipodi="http://sodipodi.sourceforge.net/DTD/sodipodi-0.dtd"
   xmlns="http://www.w3.org/2000/svg"
   xmlns:svg="http://www.w3.org/2000/svg"><sodipodi:namedview
     id="namedview1"
     pagecolor="#ffffff"
     bordercolor="#000000"
     borderopacity="0.25"
     inkscape:showpageshadow="2"
     inkscape:pageopacity="0.0"
     inkscape:pagecheckerboard="0"
     inkscape:deskcolor="#d1d1d1"
     inkscape:document-units="mm"
     inkscape:zoom="0.5"
     inkscape:cx="908"
     inkscape:cy="1113"
     inkscape:window-width="1920"
     inkscape:window-height="1009"
     inkscape:window-x="-8"
     inkscape:window-y="-8"
     inkscape:window-maximized="1"
     inkscape:current-layer="layer1" /><defs
     id="defs1" /><g
     inkscape:label="Layer 1"
     inkscape:groupmode="layer"
     id="layer1"
     transform="translate(-115.16806,-155.27528)"><g
       id="g260"><rect
         style="fill:#ffffff;stroke:none;stroke-width:0.457032;stroke-dasharray:none"
         id="rect93"
         width="32"
         height="32"
         x="115.16806"
         y="155.27528"
         ry="1.8975548" /><g
         id="g259"
         transform="translate(64.922617)"><path
           style="fill:#000000;stroke:none;stroke-width:0.5;stroke-dasharray:none"
           d="m 72.68653,158.73436 c -7.75495,3.03972 -14.99517,11.30484 -15.97497,18.04164 -0.11676,0.80277 -0.98517,0.72884 -1.17454,-0.007 -3.759403,-14.60873 8.58812,-21.33816 16.66461,-18.86809 0.55529,0.1612 1.00751,0.53014 0.4849,0.83345 z"
           id="path177"
           sodipodi:nodetypes="csscc" /><g
           id="g258"><g
             id="g182"
             transform="translate(-46.69409,-40.917548)"><g
               id="g180"><g
                 id="g179"><path
                   style="fill:#000000;stroke:none;stroke-width:0.2;stroke-dasharray:none"
                   d="m 116.02055,206.81749 c -0.006,0.0592 0.023,0.10558 0.0848,0.076 0.22983,-0.13511 0.456,-0.18867 0.66964,-0.29693 0.0426,-0.0255 0.0685,-0.0539 0.0643,-0.0877 l -0.0557,-0.4865 c -0.0111,-0.0762 0.008,-0.10609 -0.0438,-0.15201 -0.17906,-0.17317 -0.3574,-0.19877 -0.56711,-0.15493 -0.0921,0.0193 -0.0871,0.0851 -0.0906,0.14324 z"
                   id="path178"
                   sodipodi:nodetypes="ccccccccc" /><path
                   style="fill:#000000;stroke:none;stroke-width:0.2;stroke-dasharray:none"
                   d="m 117.03496,204.92776 c -0.0422,0.0384 -0.0429,0.0739 0,0.12403 0.27287,0.3281 0.54533,0.67609 0.65295,1.18966 0.0134,0.0978 0.0373,0.14191 0.14652,0.0718 1.01423,-0.57683 1.07341,-1.64256 0.48673,-2.36639 l -1.181,-1.49671 c -0.36142,-0.44373 -1.54983,-0.29047 -2.04044,0.33326 -0.50634,0.5578 -0.74254,1.19857 -1.41486,1.81826 l -0.67819,0.54958 c -0.4045,0.35558 0.73416,1.6443 1.52693,2.45353 0.12833,0.13641 0.37362,0.0968 0.42997,-0.10767 l 0.1513,-0.96855 c 0.014,-0.077 -0.0611,-0.10463 -0.10523,-0.0702 l -0.11308,0.0819 c -0.0979,0.0834 -0.2494,0.12547 -0.3425,0.0291 l -0.4863,-0.58424 c -0.1046,-0.1068 -0.10259,-0.22806 0.002,-0.32039 l 2.89386,-2.24792 c 0.11687,-0.091 0.26011,-0.12416 0.37207,-0.004 l 0.47542,0.51366 c 0.0951,0.10818 0.11196,0.24943 -0.004,0.35554 z"
                   id="path179"
                   sodipodi:nodetypes="cccccccccccccccccccccc" /></g><path
                 style="fill:#000000;stroke:none;stroke-width:0.2;stroke-dasharray:none"
                 d="m 117.0505,203.54963 -2.80293,2.17248 c -0.0636,0.0492 -0.0917,0.11235 -0.0331,0.19017 l 0.40515,0.49226 c 0.0758,0.0853 0.13504,0.0715 0.21497,0 l 2.87179,-2.16735 c 0.0628,-0.0482 0.0602,-0.1161 0.0207,-0.1695 l -0.40786,-0.49739 c -0.0789,-0.0845 -0.17773,-0.0884 -0.26871,-0.0207 z"
                 id="path180"
                 sodipodi:nodetypes="cccccccccc" /></g><g
               id="g181"><path
                 style="fill:#000000;stroke:none;stroke-width:0.2;stroke-dasharray:none"
                 d="m 115.87641,205.95152 c -0.003,-0.0736 -0.0339,-0.0945 -0.0979,-0.0496 l -0.36099,0.28939 c -0.061,0.0482 -0.072,0.10618 -0.0785,0.16123 l -0.77713,4.44059 c -0.42732,2.80868 4.16881,2.85648 3.82917,0.0702 -0.31186,-1.64727 -0.59946,-3.30118 -0.93951,-4.9407 -0.0275,-0.13567 -0.0421,-0.28371 -0.15296,-0.40101 l -0.39274,-0.37621 c -0.0399,-0.0377 -0.0969,-0.004 -0.14056,0.0248 l -0.30743,0.22938 c -0.032,0.0212 -0.0341,0.0375 0.0124,0.0786 0.25414,0.10615 0.51394,0.30587 0.54258,0.56437 0.0355,0.39825 0.0405,0.7965 0.0377,1.19475 0,0.60919 -1.22784,0.55413 -1.22784,-0.11162 z"
                 id="path181"
                 sodipodi:nodetypes="cccccccccccccccc" /><circle
                 style="fill:#ffffff;stroke:none;stroke-width:0.185833"
                 id="circle181"
                 cx="116.45693"
                 cy="210.9276"
                 r="1.2874717" /></g></g><g
             id="g201"><path
               style="fill:#000000;stroke:none;stroke-width:0.499999;stroke-dasharray:none"
               d="m 74.65107,158.90085 c -0.18458,-0.0783 -0.27443,-0.0545 -0.42094,0 -1.36338,0.49015 -2.69003,1.1942 -3.866,2.04814 -0.16307,0.12098 -0.0853,0.20371 0.0351,0.30402 0.86644,0.64893 1.85247,2.55987 1.76075,2.72927 -0.0774,0.21979 0.0794,0.21717 0.20962,0.31571 l 1.44409,1.10062 c 0.1177,0.10177 0.18053,0.0595 0.23678,0 l 3.5386,-4.47808 c 0.0994,-0.13918 0.0722,-0.2597 -0.0661,-0.36381 -0.87649,-0.73462 -1.94021,-1.28505 -2.87183,-1.65587 z"
               id="path182"
               sodipodi:nodetypes="ccccccccccc" /><g
               id="g200"><path
                 style="fill:#ffffff;stroke-width:0.02"
                 d="m 75.4716,159.2329 c -1.85898,0.61373 -3.38242,1.49061 -4.44315,2.6655 l 0.76926,1.1783 c 1.36175,-1.39345 3.02803,-2.44108 4.96664,-3.11736 -0.41116,-0.2829 -0.84163,-0.52198 -1.29275,-0.72644 z"
                 id="path183"
                 sodipodi:nodetypes="ccccc" /><g
                 id="g199"
                 transform="translate(-46.69409,-40.917548)"><g
                   id="g190"><path
                     style="fill:#000000;stroke:none;stroke-width:0.0290301;stroke-dasharray:none"
                     d="m 121.91494,200.93441 c 0.0157,0.0353 0.0315,0.0523 0.0619,0.0402 l 0.19542,-0.075 c 0.0241,-0.009 0.0308,-0.014 0.0201,-0.0514 l -0.15614,-0.62276 c -0.0123,-0.048 -0.0308,-0.0647 -0.0679,-0.0516 l -0.32078,0.12049 c -0.0331,0.0119 -0.036,0.0411 -0.0135,0.0806 z"
                     id="path184"
                     sodipodi:nodetypes="ccccccccc" /><path
                     style="fill:#000000;stroke:none;stroke-width:0.0290301;stroke-dasharray:none"
                     d="m 121.29674,201.19098 c 0.0166,0.0349 0.0328,0.0515 0.0629,0.0387 l 0.19348,-0.0799 c 0.0239,-0.01 0.0304,-0.0148 0.0188,-0.0519 l -0.18186,-0.6479 c -0.0135,-0.0477 -0.0324,-0.0639 -0.0692,-0.0499 l -0.31768,0.12846 c -0.0328,0.0127 -0.035,0.042 -0.0115,0.0809 z"
                     id="path185"
                     sodipodi:nodetypes="ccccccccc" /><path
                     style="fill:#000000;stroke:none;stroke-width:0.0290301;stroke-dasharray:none"
                     d="m 120.71201,201.49008 c 0.019,0.0336 0.0363,0.0491 0.0655,0.0342 l 0.1874,-0.0933 c 0.0231,-0.0117 0.0293,-0.0169 0.0151,-0.0531 l -0.23656,-0.65479 c -0.0168,-0.0466 -0.0368,-0.0615 -0.0725,-0.0449 l -0.30787,0.15045 c -0.0318,0.015 -0.032,0.0443 -0.006,0.0815 z"
                     id="path186"
                     sodipodi:nodetypes="ccccccccc" /><path
                     style="fill:#000000;stroke:none;stroke-width:0.0290301;stroke-dasharray:none"
                     d="m 120.13634,201.78628 c 0.0211,0.0323 0.0394,0.0466 0.0676,0.0299 l 0.18096,-0.10524 c 0.0223,-0.0132 0.0281,-0.0188 0.0116,-0.054 l -0.27676,-0.63377 c -0.0198,-0.0454 -0.0407,-0.059 -0.0753,-0.0401 l -0.29748,0.17007 c -0.0308,0.017 -0.0291,0.0463 -7.1e-4,0.0817 z"
                     id="path187"
                     sodipodi:nodetypes="ccccccccc" /><path
                     style="fill:#000000;stroke:none;stroke-width:0.0290301;stroke-dasharray:none"
                     d="m 119.60943,202.1487 c 0.0228,0.0311 0.0418,0.0445 0.0691,0.0263 l 0.17515,-0.11467 c 0.0216,-0.0143 0.0271,-0.0202 0.009,-0.0545 l -0.3193,-0.63855 c -0.0222,-0.0443 -0.0438,-0.0567 -0.0773,-0.0361 l -0.28806,0.18556 c -0.0298,0.0186 -0.0266,0.0478 0.004,0.0816 z"
                     id="path188"
                     sodipodi:nodetypes="ccccccccc" /><path
                     style="fill:#000000;stroke:none;stroke-width:0.0290301;stroke-dasharray:none"
                     d="m 119.0793,202.51959 c 0.0249,0.0295 0.0448,0.0415 0.0707,0.0215 l 0.16683,-0.12646 c 0.0205,-0.0158 0.0256,-0.0221 0.005,-0.055 l -0.35391,-0.61467 c -0.0252,-0.0427 -0.0476,-0.0536 -0.0796,-0.0307 l -0.2746,0.20498 c -0.0285,0.0206 -0.0232,0.0495 0.009,0.0812 z"
                     id="path189"
                     sodipodi:nodetypes="ccccccccc" /><path
                     style="fill:#000000;stroke:none;stroke-width:0.0290301;stroke-dasharray:none"
                     d="m 118.61427,202.9831 c 0.028,0.0266 0.0491,0.0363 0.0726,0.0136 l 0.15191,-0.14403 c 0.0187,-0.0179 0.0231,-0.0247 -0.001,-0.0552 l -0.4597,-0.61963 c -0.0297,-0.0397 -0.0532,-0.048 -0.0825,-0.0217 l -0.2504,0.23392 c -0.026,0.0237 -0.0176,0.0517 0.0181,0.0797 z"
                     id="path190"
                     sodipodi:nodetypes="ccccccccc" /></g><g
                   id="g198"><path
                     style="fill:#000000;stroke:none;stroke-width:0.0290301;stroke-dasharray:none"
                     d="m 122.44654,200.56009 c -0.0174,-0.0346 -0.034,-0.0507 -0.0638,-0.0371 l -0.19155,0.0844 c -0.0236,0.0104 -0.03,0.0155 -0.0175,0.0523 l 0.18622,0.61443 c 0.0146,0.0473 0.0339,0.0631 0.0704,0.0482 l 0.31453,-0.13594 c 0.0325,-0.0135 0.034,-0.0428 0.01,-0.0812 z"
                     id="path191"
                     sodipodi:nodetypes="ccccccccc" /><path
                     style="fill:#000000;stroke:none;stroke-width:0.0290301;stroke-dasharray:none"
                     d="m 121.82962,200.84601 c -0.019,-0.0337 -0.0364,-0.049 -0.0655,-0.034 l -0.18732,0.0934 c -0.0231,0.0115 -0.0292,0.0169 -0.015,0.0531 l 0.22397,0.62243 c 0.0168,0.0466 0.0369,0.0614 0.0726,0.0448 l 0.30772,-0.15073 c 0.0318,-0.015 0.0319,-0.0444 0.006,-0.0816 z"
                     id="path192"
                     sodipodi:nodetypes="ccccccccc" /><path
                     style="fill:#000000;stroke:none;stroke-width:0.0290301;stroke-dasharray:none"
                     d="m 121.2199,201.12409 c -0.0205,-0.0328 -0.0386,-0.0473 -0.067,-0.031 l -0.18292,0.10174 c -0.0226,0.0125 -0.0284,0.0182 -0.0126,0.0537 l 0.25976,0.61943 c 0.0189,0.0458 0.0396,0.0597 0.0745,0.0415 l 0.30063,-0.16443 c 0.0311,-0.0164 0.0299,-0.0458 0.002,-0.0818 z"
                     id="path193"
                     sodipodi:nodetypes="ccccccccc" /><path
                     style="fill:#000000;stroke:none;stroke-width:0.0290301;stroke-dasharray:none"
                     d="m 120.62655,201.41457 c -0.0222,-0.0317 -0.041,-0.0452 -0.0685,-0.0275 l -0.17731,0.11122 c -0.0219,0.0136 -0.0274,0.0196 -0.01,0.0543 l 0.31411,0.63947 c 0.0213,0.0448 0.0427,0.0576 0.0766,0.0376 l 0.29156,-0.18003 c 0.0302,-0.0181 0.0275,-0.0473 -0.002,-0.0818 z"
                     id="path194"
                     sodipodi:nodetypes="ccccccccc" /><path
                     style="fill:#000000;stroke:none;stroke-width:0.0290301;stroke-dasharray:none"
                     d="m 120.07704,201.74646 c -0.0238,-0.0305 -0.0433,-0.043 -0.0699,-0.0238 l -0.1713,0.12028 c -0.0212,0.0148 -0.0263,0.0211 -0.007,0.0547 l 0.34974,0.62305 c 0.0236,0.0436 0.0456,0.0552 0.0784,0.0335 l 0.28182,-0.19492 c 0.0292,-0.0196 0.025,-0.0487 -0.007,-0.0816 z"
                     id="path195"
                     sodipodi:nodetypes="ccccccccc" /><path
                     style="fill:#000000;stroke:none;stroke-width:0.0290301;stroke-dasharray:none"
                     d="m 119.52549,202.08995 c -0.0251,-0.0295 -0.045,-0.0413 -0.0708,-0.0211 l -0.16641,0.12696 c -0.0206,0.0156 -0.0255,0.0221 -0.004,0.0549 l 0.39819,0.63694 c 0.0253,0.0426 0.0477,0.0534 0.0797,0.0304 l 0.2739,-0.20591 c 0.0285,-0.0207 0.023,-0.0496 -0.01,-0.0812 z"
                     id="path196"
                     sodipodi:nodetypes="ccccccccc" /><path
                     style="fill:#000000;stroke:none;stroke-width:0.0290301;stroke-dasharray:none"
                     d="m 119.02807,202.50707 c -0.0269,-0.0278 -0.0477,-0.0382 -0.072,-0.0163 l -0.15752,0.13783 c -0.0195,0.017 -0.024,0.0238 -0.001,0.0551 l 0.42726,0.60951 c 0.0281,0.0408 0.0512,0.0501 0.0815,0.025 l 0.25948,-0.2238 c 0.027,-0.0226 0.0196,-0.0511 -0.0152,-0.0804 z"
                     id="path197"
                     sodipodi:nodetypes="ccccccccc" /><path
                     style="fill:#000000;stroke:none;stroke-width:0.0290301;stroke-dasharray:none"
                     d="m 118.53515,202.96988 c -0.028,-0.0267 -0.0491,-0.0363 -0.0726,-0.0134 l -0.15199,0.14391 c -0.0188,0.0177 -0.023,0.0247 0.001,0.0551 l 0.42884,0.56712 c 0.0297,0.0397 0.0532,0.048 0.0825,0.0217 l 0.25048,-0.23383 c 0.0261,-0.0236 0.0176,-0.0518 -0.0183,-0.0798 z"
                     id="path198"
                     sodipodi:nodetypes="ccccccccc" /></g></g></g></g><g
             id="g257"><path
               id="path201"
               style="fill:#000000;stroke:none;stroke-width:0.2;stroke-dasharray:none"
               d="m 65.89519,164.31102 c -0.0545,0.004 -0.12101,0.0333 -0.19844,0.0925 -3.92396,3.66789 -7.3193,8.15838 -8.43796,13.67678 -0.12056,0.5947 -0.0427,1.20461 0.41643,1.77178 0.94771,1.17084 2.31807,2.35862 2.64356,2.52502 4.22788,3.52923 12.36661,3.89768 17.12811,-0.10214 0.1881,-0.13445 0.1206,-0.21579 -0.003,-0.37355 l -3.1232,-3.96773 c -0.25621,-0.39837 -0.32582,-0.32776 -0.65331,-0.0639 -3.52295,2.83843 -9.49426,1.95881 -11.5254,-2.74557 -0.0366,-0.0849 -0.0449,-0.25538 -0.0192,-0.32895 1.03268,-2.95387 2.46102,-5.65633 5.31483,-7.94509 0.0782,-0.17949 0.0715,-0.19845 -0.0558,-0.36225 -0.48657,-0.62591 -1.31408,-1.69762 -1.32499,-1.99006 -0.0139,-0.12627 -0.0705,-0.19314 -0.16123,-0.18707 z"
               sodipodi:nodetypes="scsscsccssscscss" /><g
               id="g256"><path
                 style="fill:#ffffff;stroke:none;stroke-width:0.0600001;stroke-dasharray:none"
                 d="m 66.377972,165.1096 c -4.660868,3.85835 -7.48413,8.80564 -8.778049,14.65922 0.256647,0.39336 0.603641,0.74897 0.970524,1.09622 1.055587,-5.96699 3.861535,-10.93377 8.409443,-14.90515 z"
                 id="path202"
                 sodipodi:nodetypes="ccccc" /><g
                 id="g255"><g
                   id="g218"
                   transform="rotate(-15,-38.161846,395.75033)"><g
                     id="g209"><path
                       style="fill:#000000;stroke:none;stroke-width:0.0290301;stroke-dasharray:none"
                       d="m 121.91494,200.93441 c 0.0157,0.0353 0.0315,0.0523 0.0619,0.0402 l 0.19542,-0.075 c 0.0241,-0.009 0.0308,-0.014 0.0201,-0.0514 l -0.15614,-0.62276 c -0.0123,-0.048 -0.0308,-0.0647 -0.0679,-0.0516 l -0.32078,0.12049 c -0.0331,0.0119 -0.036,0.0411 -0.0135,0.0806 z"
                       id="path203"
                       sodipodi:nodetypes="ccccccccc" /><path
                       style="fill:#000000;stroke:none;stroke-width:0.0290301;stroke-dasharray:none"
                       d="m 121.29674,201.19098 c 0.0166,0.0349 0.0328,0.0515 0.0629,0.0387 l 0.19348,-0.0799 c 0.0239,-0.01 0.0304,-0.0148 0.0188,-0.0519 l -0.18186,-0.6479 c -0.0135,-0.0477 -0.0324,-0.0639 -0.0692,-0.0499 l -0.31768,0.12846 c -0.0328,0.0127 -0.035,0.042 -0.0115,0.0809 z"
                       id="path204"
                       sodipodi:nodetypes="ccccccccc" /><path
                       style="fill:#000000;stroke:none;stroke-width:0.0290301;stroke-dasharray:none"
                       d="m 120.71201,201.49008 c 0.019,0.0336 0.0363,0.0491 0.0655,0.0342 l 0.1874,-0.0933 c 0.0231,-0.0117 0.0293,-0.0169 0.0151,-0.0531 l -0.23656,-0.65479 c -0.0168,-0.0466 -0.0368,-0.0615 -0.0725,-0.0449 l -0.30787,0.15045 c -0.0318,0.015 -0.032,0.0443 -0.006,0.0815 z"
                       id="path205"
                       sodipodi:nodetypes="ccccccccc" /><path
                       style="fill:#000000;stroke:none;stroke-width:0.0290301;stroke-dasharray:none"
                       d="m 120.13634,201.78628 c 0.0211,0.0323 0.0394,0.0466 0.0676,0.0299 l 0.18096,-0.10524 c 0.0223,-0.0132 0.0281,-0.0188 0.0116,-0.054 l -0.27676,-0.63377 c -0.0198,-0.0454 -0.0407,-0.059 -0.0753,-0.0401 l -0.29748,0.17007 c -0.0308,0.017 -0.0291,0.0463 -7.1e-4,0.0817 z"
                       id="path206"
                       sodipodi:nodetypes="ccccccccc" /><path
                       style="fill:#000000;stroke:none;stroke-width:0.0290301;stroke-dasharray:none"
                       d="m 119.60943,202.1487 c 0.0228,0.0311 0.0418,0.0445 0.0691,0.0263 l 0.17515,-0.11467 c 0.0216,-0.0143 0.0271,-0.0202 0.009,-0.0545 l -0.3193,-0.63855 c -0.0222,-0.0443 -0.0438,-0.0567 -0.0773,-0.0361 l -0.28806,0.18556 c -0.0298,0.0186 -0.0266,0.0478 0.004,0.0816 z"
                       id="path207"
                       sodipodi:nodetypes="ccccccccc" /><path
                       style="fill:#000000;stroke:none;stroke-width:0.0290301;stroke-dasharray:none"
                       d="m 119.0793,202.51959 c 0.0249,0.0295 0.0448,0.0415 0.0707,0.0215 l 0.16683,-0.12646 c 0.0205,-0.0158 0.0256,-0.0221 0.005,-0.055 l -0.35391,-0.61467 c -0.0252,-0.0427 -0.0476,-0.0536 -0.0796,-0.0307 l -0.2746,0.20498 c -0.0285,0.0206 -0.0232,0.0495 0.009,0.0812 z"
                       id="path208"
                       sodipodi:nodetypes="ccccccccc" /><path
                       style="fill:#000000;stroke:none;stroke-width:0.0290301;stroke-dasharray:none"
                       d="m 118.61427,202.9831 c 0.028,0.0266 0.0491,0.0363 0.0726,0.0136 l 0.15191,-0.14403 c 0.0187,-0.0179 0.0231,-0.0247 -0.001,-0.0552 l -0.4597,-0.61963 c -0.0297,-0.0397 -0.0532,-0.048 -0.0825,-0.0217 l -0.2504,0.23392 c -0.026,0.0237 -0.0176,0.0517 0.0181,0.0797 z"
                       id="path209"
                       sodipodi:nodetypes="ccccccccc" /></g><g
                     id="g217"><path
                       style="fill:#000000;stroke:none;stroke-width:0.0290301;stroke-dasharray:none"
                       d="m 122.44654,200.56009 c -0.0174,-0.0346 -0.034,-0.0507 -0.0638,-0.0371 l -0.19155,0.0844 c -0.0236,0.0104 -0.03,0.0155 -0.0175,0.0523 l 0.18622,0.61443 c 0.0146,0.0473 0.0339,0.0631 0.0704,0.0482 l 0.31453,-0.13594 c 0.0325,-0.0135 0.034,-0.0428 0.01,-0.0812 z"
                       id="path210"
                       sodipodi:nodetypes="ccccccccc" /><path
                       style="fill:#000000;stroke:none;stroke-width:0.0290301;stroke-dasharray:none"
                       d="m 121.82962,200.84601 c -0.019,-0.0337 -0.0364,-0.049 -0.0655,-0.034 l -0.18732,0.0934 c -0.0231,0.0115 -0.0292,0.0169 -0.015,0.0531 l 0.22397,0.62243 c 0.0168,0.0466 0.0369,0.0614 0.0726,0.0448 l 0.30772,-0.15073 c 0.0318,-0.015 0.0319,-0.0444 0.006,-0.0816 z"
                       id="path211"
                       sodipodi:nodetypes="ccccccccc" /><path
                       style="fill:#000000;stroke:none;stroke-width:0.0290301;stroke-dasharray:none"
                       d="m 121.2199,201.12409 c -0.0205,-0.0328 -0.0386,-0.0473 -0.067,-0.031 l -0.18292,0.10174 c -0.0226,0.0125 -0.0284,0.0182 -0.0126,0.0537 l 0.25976,0.61943 c 0.0189,0.0458 0.0396,0.0597 0.0745,0.0415 l 0.30063,-0.16443 c 0.0311,-0.0164 0.0299,-0.0458 0.002,-0.0818 z"
                       id="path212"
                       sodipodi:nodetypes="ccccccccc" /><path
                       style="fill:#000000;stroke:none;stroke-width:0.0290301;stroke-dasharray:none"
                       d="m 120.62655,201.41457 c -0.0222,-0.0317 -0.041,-0.0452 -0.0685,-0.0275 l -0.17731,0.11122 c -0.0219,0.0136 -0.0274,0.0196 -0.01,0.0543 l 0.31411,0.63947 c 0.0213,0.0448 0.0427,0.0576 0.0766,0.0376 l 0.29156,-0.18003 c 0.0302,-0.0181 0.0275,-0.0473 -0.002,-0.0818 z"
                       id="path213"
                       sodipodi:nodetypes="ccccccccc" /><path
                       style="fill:#000000;stroke:none;stroke-width:0.0290301;stroke-dasharray:none"
                       d="m 120.07704,201.74646 c -0.0238,-0.0305 -0.0433,-0.043 -0.0699,-0.0238 l -0.1713,0.12028 c -0.0212,0.0148 -0.0263,0.0211 -0.007,0.0547 l 0.34974,0.62305 c 0.0236,0.0436 0.0456,0.0552 0.0784,0.0335 l 0.28182,-0.19492 c 0.0292,-0.0196 0.025,-0.0487 -0.007,-0.0816 z"
                       id="path214"
                       sodipodi:nodetypes="ccccccccc" /><path
                       style="fill:#000000;stroke:none;stroke-width:0.0290301;stroke-dasharray:none"
                       d="m 119.52549,202.08995 c -0.0251,-0.0295 -0.045,-0.0413 -0.0708,-0.0211 l -0.16641,0.12696 c -0.0206,0.0156 -0.0255,0.0221 -0.004,0.0549 l 0.39819,0.63694 c 0.0253,0.0426 0.0477,0.0534 0.0797,0.0304 l 0.2739,-0.20591 c 0.0285,-0.0207 0.023,-0.0496 -0.01,-0.0812 z"
                       id="path215"
                       sodipodi:nodetypes="ccccccccc" /><path
                       style="fill:#000000;stroke:none;stroke-width:0.0290301;stroke-dasharray:none"
                       d="m 119.02807,202.50707 c -0.0269,-0.0278 -0.0477,-0.0382 -0.072,-0.0163 l -0.15752,0.13783 c -0.0195,0.017 -0.024,0.0238 -0.001,0.0551 l 0.42726,0.60951 c 0.0281,0.0408 0.0512,0.0501 0.0815,0.025 l 0.25948,-0.2238 c 0.027,-0.0226 0.0196,-0.0511 -0.0152,-0.0804 z"
                       id="path216"
                       sodipodi:nodetypes="ccccccccc" /><path
                       style="fill:#000000;stroke:none;stroke-width:0.0290301;stroke-dasharray:none"
                       d="m 118.53515,202.96988 c -0.028,-0.0267 -0.0491,-0.0363 -0.0726,-0.0134 l -0.15199,0.14391 c -0.0188,0.0177 -0.023,0.0247 0.001,0.0551 l 0.42884,0.56712 c 0.0297,0.0397 0.0532,0.048 0.0825,0.0217 l 0.25048,-0.23383 c 0.0261,-0.0236 0.0176,-0.0518 -0.0183,-0.0798 z"
                       id="path217"
                       sodipodi:nodetypes="ccccccccc" /></g></g><g
                   id="g232"><g
                     id="g224"><path
                       style="fill:#000000;stroke:none;stroke-width:0.0290301;stroke-dasharray:none"
                       d="m 62.960576,169.51331 c 0.03233,0.0212 0.05482,0.0269 0.07381,2.2e-4 l 0.123548,-0.16897 c 0.01537,-0.0206 0.01829,-0.0285 -0.01098,-0.0541 l -0.468828,-0.43865 c -0.03636,-0.0337 -0.06096,-0.0377 -0.08503,-0.007 l -0.204224,0.27516 c -0.02136,0.0279 -0.008,0.054 0.03235,0.075 z"
                       id="path218"
                       sodipodi:nodetypes="ccccccccc" /><path
                       style="fill:#000000;stroke:none;stroke-width:0.0290301;stroke-dasharray:none"
                       d="m 62.580209,170.06406 c 0.03287,0.0203 0.05548,0.0255 0.07383,-0.002 l 0.119261,-0.17203 c 0.01466,-0.0214 0.01752,-0.0289 -0.01234,-0.0538 l -0.504069,-0.44583 c -0.0372,-0.0328 -0.06187,-0.0361 -0.0852,-0.004 l -0.197299,0.28017 c -0.02068,0.0284 -0.0066,0.0543 0.0342,0.0742 z"
                       id="path219"
                       sodipodi:nodetypes="ccccccccc" /><path
                       style="fill:#000000;stroke:none;stroke-width:0.0290301;stroke-dasharray:none"
                       d="m 62.251024,170.63239 c 0.03418,0.0179 0.05712,0.0216 0.07358,-0.007 l 0.106887,-0.18 c 0.01307,-0.0223 0.01546,-0.0301 -0.0161,-0.0528 l -0.553768,-0.42196 c -0.03938,-0.03 -0.06426,-0.0317 -0.08526,0.002 l -0.177134,0.29333 c -0.01859,0.0299 -0.0029,0.0546 0.03914,0.0717 z"
                       id="path220"
                       sodipodi:nodetypes="ccccccccc" /><path
                       style="fill:#000000;stroke:none;stroke-width:0.0290301;stroke-dasharray:none"
                       d="m 61.850404,171.15944 c 0.03345,0.0192 0.05624,0.0237 0.0738,-0.004 l 0.113575,-0.17585 c 0.01389,-0.0219 0.01652,-0.0295 -0.01414,-0.0534 l -0.534025,-0.43941 c -0.03823,-0.0315 -0.06303,-0.0341 -0.08528,-0.002 l -0.188039,0.28645 c -0.01974,0.0291 -0.0049,0.0545 0.03642,0.0731 z"
                       id="path221"
                       sodipodi:nodetypes="ccccccccc" /><path
                       style="fill:#000000;stroke:none;stroke-width:0.0290301;stroke-dasharray:none"
                       d="m 61.479882,171.69883 c 0.03373,0.0187 0.05661,0.0228 0.07376,-0.005 l 0.110949,-0.17754 c 0.01362,-0.022 0.01614,-0.0297 -0.01467,-0.0533 l -0.557573,-0.44588 c -0.03872,-0.0309 -0.06353,-0.0331 -0.08532,-3.4e-4 l -0.183739,0.28923 c -0.01926,0.0294 -0.0041,0.0546 0.03784,0.0724 z"
                       id="path222"
                       sodipodi:nodetypes="ccccccccc" /><path
                       style="fill:#000000;stroke:none;stroke-width:0.0290301;stroke-dasharray:none"
                       d="m 61.107728,172.26603 c 0.03395,0.0184 0.05685,0.0223 0.07367,-0.006 l 0.109186,-0.1786 c 0.01336,-0.0222 0.01575,-0.03 -0.01542,-0.053 l -0.553795,-0.44315 c -0.03905,-0.0306 -0.06389,-0.0325 -0.08532,5e-4 l -0.18087,0.29104 c -0.01903,0.0296 -0.0036,0.0546 0.038,0.0724 z"
                       id="path223"
                       sodipodi:nodetypes="ccccccccc" /><path
                       style="fill:#000000;stroke:none;stroke-width:0.0290301;stroke-dasharray:none"
                       d="m 60.787386,172.84966 c 0.03492,0.0164 0.05792,0.0194 0.07323,-0.01 l 0.09964,-0.1841 c 0.01221,-0.0228 0.01427,-0.0307 -0.01811,-0.0521 l -0.629453,-0.44615 c -0.04055,-0.0285 -0.06548,-0.0291 -0.08516,0.005 l -0.165339,0.30014 c -0.01735,0.0306 -6.71e-4,0.0546 0.04196,0.0702 z"
                       id="path224"
                       sodipodi:nodetypes="ccccccccc" /></g><g
                     id="g231"><path
                       style="fill:#000000;stroke:none;stroke-width:0.0290301;stroke-dasharray:none"
                       d="m 62.840958,169.48528 c -0.03424,-0.018 -0.05715,-0.0214 -0.07347,0.007 l -0.106766,0.18003 c -0.01318,0.0222 -0.01537,0.03 0.01618,0.0528 l 0.525645,0.4016 c 0.03938,0.03 0.0643,0.0316 0.08529,-0.002 l 0.176856,-0.29348 c 0.01859,-0.0298 0.0027,-0.0546 -0.0392,-0.0718 z"
                       id="path225"
                       sodipodi:nodetypes="ccccccccc" /><path
                       style="fill:#000000;stroke:none;stroke-width:0.0290301;stroke-dasharray:none"
                       d="m 62.479378,170.04951 c -0.03501,-0.0164 -0.05808,-0.0188 -0.07311,0.0103 l -0.09855,0.18466 c -0.01221,0.0228 -0.014,0.0307 0.01853,0.052 l 0.554092,0.37967 c 0.04071,0.0282 0.06564,0.0287 0.0851,-0.006 l 0.16347,-0.30115 c 0.01724,-0.0307 2.95e-4,-0.0547 -0.04267,-0.0698 z"
                       id="path226"
                       sodipodi:nodetypes="ccccccccc" /><path
                       style="fill:#000000;stroke:none;stroke-width:0.0290301;stroke-dasharray:none"
                       d="m 62.138276,170.61527 c -0.03584,-0.0146 -0.05896,-0.0157 -0.07247,0.014 l -0.08869,0.18959 c -0.01103,0.0233 -0.0124,0.0313 0.02104,0.0511 l 0.610626,0.36704 c 0.04219,0.0261 0.06711,0.0252 0.08475,-0.01 l 0.147391,-0.30935 c 0.01556,-0.0316 -0.0025,-0.0547 -0.04603,-0.0676 z"
                       id="path227"
                       sodipodi:nodetypes="ccccccccc" /><path
                       style="fill:#000000;stroke:none;stroke-width:0.0290301;stroke-dasharray:none"
                       d="m 61.770633,171.14752 c -0.03364,-0.0191 -0.05644,-0.0232 -0.0737,0.005 l -0.112383,0.17658 c -0.01395,0.0217 -0.01625,0.0296 0.01441,0.0533 l 0.561175,0.44226 c 0.03847,0.0313 0.06321,0.0337 0.08526,9.8e-4 l 0.186017,-0.28777 c 0.01949,-0.0292 0.0045,-0.0546 -0.03763,-0.0728 z"
                       id="path228"
                       sodipodi:nodetypes="ccccccccc" /><path
                       style="fill:#000000;stroke:none;stroke-width:0.0290301;stroke-dasharray:none"
                       d="m 61.368243,171.69292 c -0.03428,-0.018 -0.05715,-0.0215 -0.07355,0.007 l -0.107072,0.17985 c -0.01335,0.0222 -0.01538,0.03 0.01676,0.0524 l 0.60696,0.44255 c 0.03935,0.0301 0.06417,0.0317 0.08529,-0.002 l 0.177374,-0.29294 c 0.01872,-0.0298 0.0028,-0.0547 -0.03955,-0.0716 z"
                       id="path229"
                       sodipodi:nodetypes="ccccccccc" /><path
                       style="fill:#000000;stroke:none;stroke-width:0.0290301;stroke-dasharray:none"
                       d="m 61.029994,172.26364 c -0.03489,-0.0168 -0.05811,-0.0188 -0.07314,0.01 l -0.09922,0.18429 c -0.01234,0.0228 -0.01417,0.0307 0.01836,0.052 l 0.613787,0.42109 c 0.04063,0.0283 0.06552,0.0289 0.0851,-0.005 l 0.164585,-0.30056 c 0.01736,-0.0306 4.57e-4,-0.0548 -0.04242,-0.07 z"
                       id="path230"
                       sodipodi:nodetypes="ccccccccc" /><path
                       style="fill:#000000;stroke:none;stroke-width:0.0290301;stroke-dasharray:none"
                       d="m 60.698578,172.8457 c -0.0349,-0.0166 -0.05783,-0.0196 -0.07321,0.01 l -0.10058,0.18355 c -0.01248,0.0226 -0.01428,0.0306 0.01782,0.0522 l 0.582001,0.40841 c 0.04043,0.0287 0.06535,0.0294 0.08518,-0.005 l 0.166776,-0.29934 c 0.01758,-0.0305 8.91e-4,-0.0547 -0.04188,-0.0703 z"
                       id="path231"
                       sodipodi:nodetypes="ccccccccc" /></g></g><g
                   id="g246"
                   transform="rotate(-10.102478,83.753205,185.67281)"><g
                     id="g238"><path
                       style="fill:#000000;stroke:none;stroke-width:0.0290301;stroke-dasharray:none"
                       d="m 62.960576,169.51331 c 0.03233,0.0212 0.05482,0.0269 0.07381,2.2e-4 l 0.123548,-0.16897 c 0.01537,-0.0206 0.01829,-0.0285 -0.01098,-0.0541 l -0.468828,-0.43865 c -0.03636,-0.0337 -0.06096,-0.0377 -0.08503,-0.007 l -0.204224,0.27516 c -0.02136,0.0279 -0.008,0.054 0.03235,0.075 z"
                       id="path232"
                       sodipodi:nodetypes="ccccccccc" /><path
                       style="fill:#000000;stroke:none;stroke-width:0.0290301;stroke-dasharray:none"
                       d="m 62.580209,170.06406 c 0.03287,0.0203 0.05548,0.0255 0.07383,-0.002 l 0.119261,-0.17203 c 0.01466,-0.0214 0.01752,-0.0289 -0.01234,-0.0538 l -0.504069,-0.44583 c -0.0372,-0.0328 -0.06187,-0.0361 -0.0852,-0.004 l -0.197299,0.28017 c -0.02068,0.0284 -0.0066,0.0543 0.0342,0.0742 z"
                       id="path233"
                       sodipodi:nodetypes="ccccccccc" /><path
                       style="fill:#000000;stroke:none;stroke-width:0.0290301;stroke-dasharray:none"
                       d="m 62.251024,170.63239 c 0.03418,0.0179 0.05712,0.0216 0.07358,-0.007 l 0.106887,-0.18 c 0.01307,-0.0223 0.01546,-0.0301 -0.0161,-0.0528 l -0.553768,-0.42196 c -0.03938,-0.03 -0.06426,-0.0317 -0.08526,0.002 l -0.177134,0.29333 c -0.01859,0.0299 -0.0029,0.0546 0.03914,0.0717 z"
                       id="path234"
                       sodipodi:nodetypes="ccccccccc" /><path
                       style="fill:#000000;stroke:none;stroke-width:0.0290301;stroke-dasharray:none"
                       d="m 61.850404,171.15944 c 0.03345,0.0192 0.05624,0.0237 0.0738,-0.004 l 0.113575,-0.17585 c 0.01389,-0.0219 0.01652,-0.0295 -0.01414,-0.0534 l -0.534025,-0.43941 c -0.03823,-0.0315 -0.06303,-0.0341 -0.08528,-0.002 l -0.188039,0.28645 c -0.01974,0.0291 -0.0049,0.0545 0.03642,0.0731 z"
                       id="path235"
                       sodipodi:nodetypes="ccccccccc" /><path
                       style="fill:#000000;stroke:none;stroke-width:0.0290301;stroke-dasharray:none"
                       d="m 61.479882,171.69883 c 0.03373,0.0187 0.05661,0.0228 0.07376,-0.005 l 0.110949,-0.17754 c 0.01362,-0.022 0.01614,-0.0297 -0.01467,-0.0533 l -0.557573,-0.44588 c -0.03872,-0.0309 -0.06353,-0.0331 -0.08532,-3.4e-4 l -0.183739,0.28923 c -0.01926,0.0294 -0.0041,0.0546 0.03784,0.0724 z"
                       id="path236"
                       sodipodi:nodetypes="ccccccccc" /><path
                       style="fill:#000000;stroke:none;stroke-width:0.0290301;stroke-dasharray:none"
                       d="m 61.107728,172.26603 c 0.03395,0.0184 0.05685,0.0223 0.07367,-0.006 l 0.109186,-0.1786 c 0.01336,-0.0222 0.01575,-0.03 -0.01542,-0.053 l -0.553795,-0.44315 c -0.03905,-0.0306 -0.06389,-0.0325 -0.08532,5e-4 l -0.18087,0.29104 c -0.01903,0.0296 -0.0036,0.0546 0.038,0.0724 z"
                       id="path237"
                       sodipodi:nodetypes="ccccccccc" /><path
                       style="fill:#000000;stroke:none;stroke-width:0.0290301;stroke-dasharray:none"
                       d="m 60.787386,172.84966 c 0.03492,0.0164 0.05792,0.0194 0.07323,-0.01 l 0.09964,-0.1841 c 0.01221,-0.0228 0.01427,-0.0307 -0.01811,-0.0521 l -0.629453,-0.44615 c -0.04055,-0.0285 -0.06548,-0.0291 -0.08516,0.005 l -0.165339,0.30014 c -0.01735,0.0306 -6.71e-4,0.0546 0.04196,0.0702 z"
                       id="path238"
                       sodipodi:nodetypes="ccccccccc" /></g><g
                     id="g245"><path
                       style="fill:#000000;stroke:none;stroke-width:0.0290301;stroke-dasharray:none"
                       d="m 62.840958,169.48528 c -0.03424,-0.018 -0.05715,-0.0214 -0.07347,0.007 l -0.106766,0.18003 c -0.01318,0.0222 -0.01537,0.03 0.01618,0.0528 l 0.525645,0.4016 c 0.03938,0.03 0.0643,0.0316 0.08529,-0.002 l 0.176856,-0.29348 c 0.01859,-0.0298 0.0027,-0.0546 -0.0392,-0.0718 z"
                       id="path239"
                       sodipodi:nodetypes="ccccccccc" /><path
                       style="fill:#000000;stroke:none;stroke-width:0.0290301;stroke-dasharray:none"
                       d="m 62.479378,170.04951 c -0.03501,-0.0164 -0.05808,-0.0188 -0.07311,0.0103 l -0.09855,0.18466 c -0.01221,0.0228 -0.014,0.0307 0.01853,0.052 l 0.554092,0.37967 c 0.04071,0.0282 0.06564,0.0287 0.0851,-0.006 l 0.16347,-0.30115 c 0.01724,-0.0307 2.95e-4,-0.0547 -0.04267,-0.0698 z"
                       id="path240"
                       sodipodi:nodetypes="ccccccccc" /><path
                       style="fill:#000000;stroke:none;stroke-width:0.0290301;stroke-dasharray:none"
                       d="m 62.138276,170.61527 c -0.03584,-0.0146 -0.05896,-0.0157 -0.07247,0.014 l -0.08869,0.18959 c -0.01103,0.0233 -0.0124,0.0313 0.02104,0.0511 l 0.610626,0.36704 c 0.04219,0.0261 0.06711,0.0252 0.08475,-0.01 l 0.147391,-0.30935 c 0.01556,-0.0316 -0.0025,-0.0547 -0.04603,-0.0676 z"
                       id="path241"
                       sodipodi:nodetypes="ccccccccc" /><path
                       style="fill:#000000;stroke:none;stroke-width:0.0290301;stroke-dasharray:none"
                       d="m 61.770633,171.14752 c -0.03364,-0.0191 -0.05644,-0.0232 -0.0737,0.005 l -0.112383,0.17658 c -0.01395,0.0217 -0.01625,0.0296 0.01441,0.0533 l 0.561175,0.44226 c 0.03847,0.0313 0.06321,0.0337 0.08526,9.8e-4 l 0.186017,-0.28777 c 0.01949,-0.0292 0.0045,-0.0546 -0.03763,-0.0728 z"
                       id="path242"
                       sodipodi:nodetypes="ccccccccc" /><path
                       style="fill:#000000;stroke:none;stroke-width:0.0290301;stroke-dasharray:none"
                       d="m 61.368243,171.69292 c -0.03428,-0.018 -0.05715,-0.0215 -0.07355,0.007 l -0.107072,0.17985 c -0.01335,0.0222 -0.01538,0.03 0.01676,0.0524 l 0.60696,0.44255 c 0.03935,0.0301 0.06417,0.0317 0.08529,-0.002 l 0.177374,-0.29294 c 0.01872,-0.0298 0.0028,-0.0547 -0.03955,-0.0716 z"
                       id="path243"
                       sodipodi:nodetypes="ccccccccc" /><path
                       style="fill:#000000;stroke:none;stroke-width:0.0290301;stroke-dasharray:none"
                       d="m 61.029994,172.26364 c -0.03489,-0.0168 -0.05811,-0.0188 -0.07314,0.01 l -0.09922,0.18429 c -0.01234,0.0228 -0.01417,0.0307 0.01836,0.052 l 0.613787,0.42109 c 0.04063,0.0283 0.06552,0.0289 0.0851,-0.005 l 0.164585,-0.30056 c 0.01736,-0.0306 4.57e-4,-0.0548 -0.04242,-0.07 z"
                       id="path244"
                       sodipodi:nodetypes="ccccccccc" /><path
                       style="fill:#000000;stroke:none;stroke-width:0.0290301;stroke-dasharray:none"
                       d="m 60.698578,172.8457 c -0.0349,-0.0166 -0.05783,-0.0196 -0.07321,0.01 l -0.10058,0.18355 c -0.01248,0.0226 -0.01428,0.0306 0.01782,0.0522 l 0.582001,0.40841 c 0.04043,0.0287 0.06535,0.0294 0.08518,-0.005 l 0.166776,-0.29934 c 0.01758,-0.0305 8.91e-4,-0.0547 -0.04188,-0.0703 z"
                       id="path245"
                       sodipodi:nodetypes="ccccccccc" /></g></g><g
                   id="g254"><g
                     id="g249"><path
                       style="fill:#000000;stroke:none;stroke-width:0.0290301;stroke-dasharray:none"
                       d="m 58.726152,177.72596 c 0.03736,0.01 0.0605,0.008 0.07013,-0.023 l 0.0641,-0.19926 c 0.0081,-0.0244 0.0084,-0.0328 -0.02745,-0.0479 l -0.583049,-0.26882 c -0.04512,-0.0205 -0.06973,-0.0166 -0.08291,0.0201 l -0.107256,0.32545 c -0.01149,0.0332 0.0094,0.0538 0.05431,0.061 z"
                       id="path246"
                       sodipodi:nodetypes="ccccccccc" /><path
                       style="fill:#000000;stroke:none;stroke-width:0.0290301;stroke-dasharray:none"
                       d="m 58.538429,178.36843 c 0.03759,0.009 0.06069,0.007 0.06945,-0.0251 l 0.05906,-0.20082 c 0.0072,-0.0249 0.0075,-0.0329 -0.02864,-0.0472 l -0.61876,-0.26455 c -0.04563,-0.0194 -0.07009,-0.0148 -0.08213,0.023 l -0.09911,0.32802 c -0.01069,0.0335 0.01082,0.0536 0.05581,0.0597 z"
                       id="path247"
                       sodipodi:nodetypes="ccccccccc" /><path
                       style="fill:#000000;stroke:none;stroke-width:0.0290301;stroke-dasharray:none"
                       d="m 58.404821,179.01148 c 0.03808,0.006 0.06102,0.003 0.06764,-0.0298 l 0.04481,-0.20449 c 0.0054,-0.0253 0.0052,-0.0334 -0.0319,-0.0451 l -0.658421,-0.22626 c -0.04682,-0.0161 -0.07097,-0.01 -0.0803,0.0287 l -0.07582,0.33417 c -0.0082,0.0342 0.01443,0.0527 0.05971,0.0557 z"
                       id="path248"
                       sodipodi:nodetypes="ccccccccc" /><path
                       style="fill:#000000;stroke:none;stroke-width:0.0290301;stroke-dasharray:none"
                       d="m 58.190416,179.63782 c 0.03779,0.008 0.06084,0.005 0.06879,-0.027 l 0.05246,-0.20266 c 0.0063,-0.0251 0.0064,-0.0332 -0.03023,-0.0462 l -0.645173,-0.24903 c -0.0462,-0.0179 -0.07056,-0.0125 -0.08158,0.0249 l -0.08834,0.33107 c -0.0096,0.0338 0.0125,0.0533 0.05757,0.0579 z"
                       id="path249"
                       sodipodi:nodetypes="ccccccccc" /></g><g
                     id="g253"><path
                       style="fill:#000000;stroke:none;stroke-width:0.0290301;stroke-dasharray:none"
                       d="m 58.60379,177.737 c -0.03816,-0.006 -0.06098,-0.002 -0.06753,0.0298 l -0.04469,0.20449 c -0.0055,0.0252 -0.0051,0.0333 0.03197,0.045 l 0.62532,0.21578 c 0.04682,0.0161 0.07098,0.01 0.08033,-0.0287 l 0.07551,-0.33422 c 0.0083,-0.0341 -0.01462,-0.0527 -0.0598,-0.0558 z"
                       id="path250"
                       sodipodi:nodetypes="ccccccccc" /><path
                       style="fill:#000000;stroke:none;stroke-width:0.0290301;stroke-dasharray:none"
                       d="m 58.438142,178.38635 c -0.03839,-0.005 -0.06105,4.3e-4 -0.06615,0.0328 l -0.03543,0.2063 c -0.0044,0.0255 -0.0036,0.0335 0.03395,0.0435 l 0.645421,0.18601 c 0.04752,0.014 0.07134,0.007 0.07889,-0.0325 l 0.06039,-0.3373 c 0.0067,-0.0346 -0.01693,-0.052 -0.06247,-0.0528 z"
                       id="path251"
                       sodipodi:nodetypes="ccccccccc" /><path
                       style="fill:#000000;stroke:none;stroke-width:0.0290301;stroke-dasharray:none"
                       d="m 58.292413,179.03071 c -0.03861,-0.003 -0.06091,0.004 -0.06438,0.0361 l -0.02452,0.20787 c -0.0031,0.0256 -0.0019,0.0336 0.03605,0.0419 l 0.695107,0.15623 c 0.04826,0.0115 0.07163,0.003 0.0773,-0.0362 l 0.04255,-0.34001 c 0.0048,-0.0349 -0.01959,-0.0511 -0.06496,-0.0497 z"
                       id="path252"
                       sodipodi:nodetypes="ccccccccc" /><path
                       style="fill:#000000;stroke:none;stroke-width:0.0290301;stroke-dasharray:none"
                       d="m 58.110946,179.65161 c -0.03794,-0.008 -0.06087,-0.004 -0.06838,0.0279 l -0.0511,0.20298 c -0.0064,0.025 -0.0061,0.0332 0.03045,0.0461 l 0.67184,0.24319 c 0.04637,0.0176 0.0706,0.0121 0.08124,-0.0259 l 0.08601,-0.33169 c 0.0093,-0.0338 -0.01291,-0.0532 -0.05863,-0.0572 z"
                       id="path253"
                       sodipodi:nodetypes="ccccccccc" /></g></g></g></g></g></g></g></g></g></svg>
